<svg xmlns="http://www.w3.org/2000/svg" viewBox="0 0 233.15 233.15"><defs><style>.cls-1{fill:#231f20;}</style></defs><g id="Layer_2" data-name="Layer 2"><g id="Layer_1-2" data-name="Layer 1"><path class="cls-1" d="M127.06,233.15H106.88l-9.29-23.66a93.75,93.75,0,0,1-33.22-13.73L41.56,206.42,27.29,192.15l10.15-23.27a93.69,93.69,0,0,1-13.81-33.25L0,127.06V106.88l23.58-9.26A93.91,93.91,0,0,1,37.35,64.29L26.72,41.56,41,27.29,64.19,37.4A93.71,93.71,0,0,1,97.54,23.56L106.08,0h20.18l9.25,23.54a93.77,93.77,0,0,1,33.36,13.81l22.71-10.63L205.85,41,195.74,64.21a93.7,93.7,0,0,1,13.8,33.31l23.61,8.56v20.18l-23.61,9.28a93.55,93.55,0,0,1-13.78,33.25l10.66,22.79-14.27,14.27L168.86,195.7a93.68,93.68,0,0,1-33.21,13.77Zm-17.45-4h14.65l8.4-23.17,1.12-.21a90.07,90.07,0,0,0,33.75-14l.91-.62,22.81,9.94,10.36-10.36-10.43-22.3.64-.94a90,90,0,0,0,14-33.8l.21-1.08,23.12-9.09V108.88l-23.1-8.37-.22-1.12a89.9,89.9,0,0,0-14-33.86l-.62-.91L201.1,41.9,190.74,31.54,168.51,41.93l-.94-.64a90,90,0,0,0-33.89-14l-1.09-.2L123.53,4H108.89l-8.37,23.05-1.11.22A89.89,89.89,0,0,0,65.52,41.33l-.91.62L41.9,32.05,31.54,42.41l10.4,22.24-.64.94a90,90,0,0,0-14,33.86l-.21,1.08L4,109.61v14.65l23.12,8.38.21,1.12a90.1,90.1,0,0,0,14,33.79l.62.91-9.93,22.79,10.36,10.36,22.31-10.44.94.64a90,90,0,0,0,33.77,14l1.08.2Zm7-32.21a80.37,80.37,0,1,1,80.37-80.37A80.46,80.46,0,0,1,116.57,196.94Zm0-156.74a76.37,76.37,0,1,0,76.37,76.37A76.46,76.46,0,0,0,116.57,40.2Z"/><path class="cls-1" d="M90.19,176.56l17.07-51.19H84.6L108.8,77h26.67l-14.8,29.6h30.77Zm.88-55.19h21.74L100.28,159l42.35-48.4H114.2L129,81H111.27Z"/></g></g></svg>